# xmcd CD database file
#
# Track frame offsets:
#	150
#	20287
#	29663
#	47314
#	58425
#	76138
#	94912
#	115366
#	124633
#	139963
#	152539
#	166668
#	175206
#	188492
#	202974
#	215929
#	230974
#	244852
#	267506
#	287858
#
# Disc length: 4103 seconds
#
# Revision: 10
# Processed by: cddbd v1.5.2PL0 Copyright (c) Steve Scherf et al.
# Submitted via: CDex 1.51
#
DISCID=24100514
DTITLE=Various Artist - All Jazz  (Jazz Crooners)  [CD 2-5]
DYEAR=2007
DGENRE=Jazz
TTITLE0=Jamie Cullum - It Ain't Necessarily So
TTITLE1=Michael Buble - Tell Him He's Yours
TTITLE2=Ray Charles - Thanks For Bringing Love Around Again
TTITLE3=George Melly Feat. Van Morrison - Midnight Cannonball
TTITLE4=Torsten Goods - The End Of The Line
TTITLE5=Nils Landgrene - Should I Care
TTITLE6=Bireli Lagrene - All Of Me
TTITLE7=Chet Baker - I Fall In Love Too Easily
TTITLE8=Louis Armstrong - La Vie En Rose
TTITLE9=Cab Calloway - The Jumpin' Jive
TTITLE10=Dizzy Gillespie - Oop-Pop-A-Da
TTITLE11=Al Jolson - Swanee
TTITLE12=Frank Sinatra - Love Is Tender Trap
TTITLE13=Fred Astaire - Let's Call The Whole Thing Off
TTITLE14=Nat King Cole - (I Love You) For Sentimental Reason
TTITLE15=Quintette Du Hot Club De France and Freddy Taylor - I Can't Give You Anything But Love
TTITLE16=Louis Armstrong and Louis Jordan - You Rascal You
TTITLE17=Klement Julienne - Martin
TTITLE18=Victor Davies - Better Place
TTITLE19=Jamie Lidell Multiply - (In A Minor Key) Piano By Gonzales
EXTD=YEAR: 2007
EXTT0=
EXTT1=
EXTT2=
EXTT3=
EXTT4=
EXTT5=
EXTT6=
EXTT7=
EXTT8=
EXTT9=
EXTT10=
EXTT11=
EXTT12=
EXTT13=
EXTT14=
EXTT15=
EXTT16=
EXTT17=
EXTT18=
EXTT19=
PLAYORDER=
